<svg t="1611813270655" class="icon" viewBox="0 0 1024 1024" version="1.1" xmlns="http://www.w3.org/2000/svg" p-id="10745" width="200" height="200"><path d="M542.7 540.7l-78.3-155.3h-43v254h40.1V456.6l70.1 138.5h22.2l67.9-138.5v182.8h40.4v-254h-42.9zM360.9 587.8H148.6c-11.1 0-20 9-20 20 0 11.1 9 20 20 20h212.3c11.1 0 20-9 20-20s-8.9-20-20-20zM360.9 397H148.6c-11.1 0-20 9-20 20 0 11.1 9 20 20 20h212.3c11.1 0 20-9 20-20s-8.9-20-20-20zM283.6 532.5c10.2-1 18.2-9.6 18.2-20s-8-19-18.2-19.9v-0.1H101.3c-11.1 0-20 9-20 20 0 11.1 9 20 20 20h182.3zM907.9 600.7c21-23 34-54.4 34-88.9 0-70.5-53.8-127.7-120.2-127.7s-120.2 57.2-120.2 127.7 53.8 127.7 120.2 127.7c19.6 0 38-5 54.4-13.8l12.7 14.3h54l-34.9-39.3z m-86.2-0.7c-44 0-79.8-39.5-79.8-88.3s35.7-88.3 79.8-88.3c44 0 79.8 39.5 79.8 88.3 0 22.6-7.7 43.2-20.3 58.8l-14.9-16.8h-54l36.4 41.1c-8.5 3.4-17.6 5.2-27 5.2z" p-id="10746" fill="#ffffff"></path></svg>